<svg width="40" height="40" viewBox="0 0 40 40" fill="none" xmlns="http://www.w3.org/2000/svg">
    <path
        d="M16.3333 26H11.7541C10.1064 26 9.28258 26 8.72874 26.456C8.62926 26.5379 8.53792 26.6293 8.45602 26.7287C8 27.2826 8 28.1064 8 29.7541V29.7541C8 31.725 8 32.7105 8.5717 33.2937C8.67326 33.3973 8.78579 33.4896 8.90731 33.5688C9.59137 34.0151 10.5577 33.8218 12.4903 33.4353L13.1178 33.3098C14.6571 33.0019 15.4267 32.848 15.88 32.295C16.3333 31.7421 16.3333 30.9572 16.3333 29.3874V12.6125C16.3333 11.0428 16.3333 10.2579 16.7866 9.70496C17.24 9.15201 18.0096 8.99808 19.5489 8.69023L28.2155 6.95689C30.4291 6.51417 31.536 6.29281 32.268 6.89292C33 7.49304 33 8.62176 33 10.8792V14.3333M33 22.6667V26.0541C33 27.6239 33 28.4087 32.5467 28.9617C32.0934 29.5147 31.3237 29.6686 29.7845 29.9764L29.157 30.1019C27.2244 30.4885 26.258 30.6817 25.574 30.2355C25.4525 30.1562 25.3399 30.064 25.2384 29.9604C24.6667 29.3771 24.6667 28.3917 24.6667 26.4208V26.4208C24.6667 24.7731 24.6667 23.9492 25.1227 23.3954C25.2046 23.2959 25.2959 23.2046 25.3954 23.1227C25.9492 22.6667 26.7731 22.6667 28.4208 22.6667H33ZM33 22.6667V14.3333M33 14.3333L16.3333 17.6667"
        stroke="#1E1E1E" stroke-width="2" />
</svg>
