<svg width="40" height="40" viewBox="0 0 40 40" fill="none" xmlns="http://www.w3.org/2000/svg">
    <path
        d="M21.6667 23.3333H14.696C13.5394 23.3333 12.9611 23.3333 12.4692 23.4603C11.2553 23.7738 10.2585 24.6383 9.77652 25.7957C9.58123 26.2647 9.49944 26.8372 9.33587 27.9822V27.9822C9.09946 29.6371 8.98126 30.4645 9.1005 31.109C9.39727 32.7131 10.6385 33.9763 12.2372 34.3012C12.8795 34.4317 13.7089 34.3281 15.3676 34.1207L16.297 34.0045C18.0568 33.7846 18.9367 33.6746 19.6175 33.2942C20.4122 32.8503 21.0317 32.1485 21.3737 31.3048C21.6667 30.5821 21.6667 29.6954 21.6667 27.9219V10.0552C21.6667 8.43683 21.6667 7.62766 22.1406 7.06817C22.6146 6.50868 23.4127 6.37565 25.0091 6.1096L31.3658 5.05015C31.5016 5.02751 31.5695 5.01619 31.6061 5.05588C31.6428 5.09557 31.6261 5.16236 31.5927 5.29593L30.0307 11.5439C30.0158 11.6036 30.0083 11.6334 29.9873 11.6534C29.9664 11.6734 29.9362 11.6794 29.8759 11.6915L21.6667 13.3333"
        stroke="#1E1E1E" stroke-width="2" />
</svg>
