<svg width="28" height="28" viewBox="0 0 28 28" fill="none" xmlns="http://www.w3.org/2000/svg">
    <path fill-rule="evenodd" clip-rule="evenodd"
        d="M24.9732 2.02434C24.5943 2.09174 24.0571 2.26804 23.1969 2.55477L8.37587 7.49513C5.99234 8.28964 4.30509 8.85434 3.20237 9.39078C2.01561 9.96811 2 10.281 2 10.3412C2 10.4013 2.01561 10.7142 3.20237 11.2916C4.30508 11.828 5.99234 12.3927 8.37587 13.1872L10.0943 13.76C10.1477 13.7778 10.2007 13.7954 10.2534 13.8128C11.0246 14.0684 11.7101 14.2955 12.2156 14.801C12.7211 15.3065 12.9483 15.9921 13.2038 16.7632C13.2212 16.8159 13.2388 16.8689 13.2566 16.9223L13.8294 18.6408C14.6239 21.0243 15.1886 22.7115 15.7251 23.8143C16.3024 25.001 16.6153 25.0166 16.6754 25.0166C16.7356 25.0166 17.0485 25.001 17.6258 23.8143C18.1623 22.7115 18.727 21.0243 19.5215 18.6408L24.4618 3.81968C24.7486 2.95951 24.9249 2.42228 24.9923 2.04338C24.9937 2.03549 24.995 2.02781 24.9963 2.02035C24.9888 2.0216 24.9811 2.02293 24.9732 2.02434ZM25.2322 2.00122C25.232 2.00141 25.2287 2.00114 25.223 1.99987C25.2295 2.00041 25.2324 2.00104 25.2322 2.00122ZM25.0167 1.79364C25.0155 1.7879 25.0152 1.78461 25.0154 1.78441C25.0156 1.7842 25.0162 1.78706 25.0167 1.79364ZM24.623 0.0552496C25.174 -0.0427677 25.9285 -0.071955 26.5085 0.508102C27.0886 1.08816 27.0594 1.84267 26.9614 2.39366C26.8651 2.9351 26.6386 3.61424 26.3831 4.38054L26.3592 4.45214L21.4189 19.2732L21.3918 19.3544C20.6303 21.6391 20.0255 23.4533 19.4243 24.6892C18.8569 25.8556 18.0568 27.0166 16.6754 27.0166C15.2941 27.0166 14.494 25.8556 13.9266 24.6892C13.3253 23.4532 12.7206 21.639 11.959 19.3542L11.932 19.2732L11.3592 17.5548C11.0171 16.5285 10.9291 16.3429 10.8014 16.2152C10.6737 16.0875 10.4881 15.9995 9.46185 15.6574L7.74341 15.0846L7.66234 15.0576C5.37761 14.296 3.56336 13.6913 2.32745 13.09C1.161 12.5226 0 11.7226 0 10.3412C0 8.9598 1.161 8.15976 2.32745 7.59231C3.56337 6.99106 5.37762 6.38633 7.66235 5.62478L7.74342 5.59776L22.5645 0.657403L22.6361 0.633531C23.4024 0.378017 24.0815 0.151567 24.623 0.0552496Z"
        fill="#1E1E1E" />
</svg>
