<svg width="32" height="32" viewBox="0 0 32 32" fill="none" xmlns="http://www.w3.org/2000/svg">
    <path
        d="M6.95466 6.78862L7.34858 7.70776L6.95466 6.78862C6.14474 7.13572 5.65742 7.972 5.75473 8.84777L6.73941 17.7099C6.93908 19.5069 7.82632 21.157 9.21531 22.3144L14.7197 26.9014C15.4613 27.5195 16.5387 27.5195 17.2804 26.9014L22.7847 22.3144C24.1737 21.157 25.061 19.5069 25.2606 17.7099L26.2453 8.84777C26.3426 7.972 25.8553 7.13572 25.0454 6.78862L24.6515 7.70776L25.0454 6.78862L16.7879 3.24968C16.2848 3.03406 15.7153 3.03406 15.2122 3.24968L6.95466 6.78862Z"
        stroke="#1E1E1E" stroke-width="2" stroke-linecap="round" />
</svg>
